<?xml version="1.0" encoding="UTF-8"?>
<svg id="_图层_2" data-name="图层 2" xmlns="http://www.w3.org/2000/svg" viewBox="0 0 523 523">
  <defs>
    <style>
      .cls-1 {
        stroke-linecap: round;
        stroke-width: 3.5px;
      }

      .cls-1, .cls-2 {
        fill: #fff;
        stroke: #fff;
        stroke-miterlimit: 10;
      }
    </style>
  </defs>
  <g id="_图层_1-2" data-name="图层 1">
    <circle cx="261.5" cy="261.5" r="261.5"/>
    <polygon class="cls-2" points="454.95 358.58 451.5 371.3 463.91 375.74 451.82 380.98 456.09 393.45 444.45 387.26 437.37 398.37 434.95 385.42 421.85 386.8 430.47 376.84 421.21 367.46 434.38 367.98 435.94 354.9 443.74 365.52 454.95 358.58"/>
    <circle class="cls-2" cx="298.54" cy="246.42" r="6.68"/>
    <circle class="cls-2" cx="377.56" cy="303.7" r="6.68"/>
    <circle class="cls-2" cx="55.47" cy="213.14" r="6.68"/>
    <circle class="cls-2" cx="89.79" cy="275.73" r="6.68"/>
    <circle class="cls-2" cx="188.86" cy="240.45" r="6.68"/>
    <circle class="cls-2" cx="172.86" cy="180.23" r="6.68"/>
    <line class="cls-1" x1="69.85" y1="206.76" x2="158.29" y2="184.3"/>
    <line class="cls-1" x1="176.62" y1="195.73" x2="184.61" y2="225.5"/>
    <line class="cls-1" x1="204.61" y1="240.5" x2="282.61" y2="243.5"/>
    <line class="cls-1" x1="312.61" y1="254.5" x2="364.61" y2="294.5"/>
    <line class="cls-1" x1="387.61" y1="315.5" x2="426.7" y2="357.97"/>
    <line class="cls-1" x1="62.61" y1="226.5" x2="82.11" y2="263"/>
    <line class="cls-1" x1="104.61" y1="271.5" x2="173.61" y2="246.5"/>
  </g>
</svg>